<svg xmlns="http://www.w3.org/2000/svg" viewBox="0 0 256 256" fill="currentColor" aria-hidden="true">
  <path d="M128 20C69.5 20 22 67.5 22 126c0 18.7 5 36.6 14.6 52.5L20 236l58.8-16.1C94.1 227 110.7 232 128 232c58.5 0 106-47.5 106-106S186.5 20 128 20zm0 192c-16.2 0-31.6-4.4-45-12.7l-3.2-1.9-34.7 9.5 9.4-33.9-2.1-3.4C43.1 155.8 38 141.2 38 126 38 77.9 79.9 36 128 36s90 41.9 90 90-41.9 86-90 86zm52.8-56.6c-2.9-1.5-17.1-8.4-19.7-9.4-2.6-1-4.5-1.5-6.5 1.5-2 3-7.5 9.4-9.2 11.3-1.7 2-3.4 2.2-6.3.7-2.9-1.5-12.3-4.5-23.5-14.5-8.7-7.8-14.5-17.5-16.2-20.5-1.7-3-0.2-4.6 1.3-6.1 1.3-1.3 2.9-3.4 4.3-5.1 1.4-1.7 1.9-2.9 2.9-4.9 1-2 0.5-3.7-0.2-5.2-0.7-1.5-6.5-15.6-8.9-21.3-2.4-5.7-4.8-4.9-6.5-5-1.7-0.1-3.7-0.1-5.6-0.1-2 0-5.2.7-7.9 3.7-2.7 3-10.4 10.1-10.4 24.6s10.7 28.5 12.2 30.5c1.5 2 21.1 32.2 51.1 45.2 7.1 3.1 12.6 5 16.9 6.4 7.1 2.3 13.6 2 18.7 1.2 5.7-0.8 17.1-7 19.6-13.8 2.4-6.8 2.4-12.6 1.7-13.8-.7-1.2-2.6-1.9-5.5-3.4z"/>
</svg>
